<svg width="178" height="188" viewBox="0 0 178 188" fill="none" xmlns="http://www.w3.org/2000/svg">
<path d="M62.7373 -22.5474C62.6964 -10.7991 64.5638 1.43929 68.7988 12.3978C76.0876 31.2582 72.5638 53.4502 57.8721 69.2566C43.0728 85.1789 20.984 90.2723 1.53789 84.1737C-9.58929 80.6841 -21.8218 79.6264 -33.4606 80.3555C-42.6824 80.9332 -51.2455 78.4193 -57.5947 72.5178C-72.8126 58.3731 -69.5506 30.1244 -50.3087 9.42257C-46.8872 5.74142 -43.1907 2.54672 -39.3398 -0.138563C-30.7599 -6.12138 -23.3138 -14.1325 -17.9733 -23.1263C-15.5763 -27.163 -12.66 -31.0827 -9.23848 -34.7639C10.0034 -55.4658 37.9385 -60.7814 53.1565 -46.6367C59.6411 -40.6094 62.7702 -32.0213 62.7373 -22.5474Z" fill="#FDBD00"/>
<path fill-rule="evenodd" clip-rule="evenodd" d="M153.302 60.0612C174.684 84.1636 187.078 117.59 169.8 132.918C153.135 147.703 122.714 128.742 102.09 105.493C86.3839 87.7895 86.9369 65.0774 99.6278 53.8187C113.113 41.8557 136.613 41.2498 153.302 60.0612Z" fill="#FDBD00"/>
<path fill-rule="evenodd" clip-rule="evenodd" d="M54.0408 166.854C79.6398 186.419 113.882 196.34 127.908 177.989C141.436 160.289 120.305 131.334 95.613 112.462C76.8097 98.0901 54.1986 100.3 43.8964 113.779C32.9498 128.101 34.0612 151.583 54.0408 166.854Z" fill="#FDBD00"/>
<path fill-rule="evenodd" clip-rule="evenodd" d="M-41.5505 142.223C-25.5168 166.476 0.738921 185.065 18.1248 173.571C34.8947 162.485 25.448 131.549 9.98245 108.155C-1.79482 90.34 -21.7242 85.5336 -34.4947 93.976C-48.0641 102.947 -54.0645 123.293 -41.5505 142.223Z" fill="#FDBD00"/>
<path fill-rule="evenodd" clip-rule="evenodd" d="M123.969 -35.8556C149.328 -21.6353 169.784 3.19321 159.591 21.3718C149.758 38.9063 118.215 31.7433 93.7543 18.0269C75.1271 7.58162 68.8785 -11.9436 76.3661 -25.2964C84.3221 -39.4845 104.177 -46.9543 123.969 -35.8556Z" fill="#FDBD00"/>
</svg>
