<svg width="72" height="82" viewBox="0 0 72 82" fill="none" xmlns="http://www.w3.org/2000/svg">
<path fill-rule="evenodd" clip-rule="evenodd" d="M24.3751 69.0169C25.8054 70.1732 27.8568 69.5436 29.6578 69.1132C31.2823 68.7249 32.7186 68.033 33.7861 66.7676C35.3143 64.9562 37.6985 62.8724 36.7395 60.719C35.781 58.5669 32.581 59.1368 30.2209 58.7626C28.3499 58.4659 26.3425 57.7218 24.8162 58.8285C23.2955 59.9311 23.2548 62.017 23.1745 63.8717C23.0944 65.7219 22.9211 67.8413 24.3751 69.0169Z" fill="#FDBD00" fill-opacity="0.45"/>
<path fill-rule="evenodd" clip-rule="evenodd" d="M67.0995 37.6973C66.0276 35.155 63.2669 33.4624 60.4742 33.3228C57.8745 33.1929 55.3742 34.8185 54.0975 37.0475C53.091 38.8047 54.7623 40.728 55.0913 42.7208C55.3696 44.4065 54.3994 46.5656 55.8291 47.5362C57.2652 48.511 59.0365 47.0612 60.6906 46.5217C62.3366 45.9849 64.173 45.8738 65.1808 44.4862C66.6406 42.4762 68.0629 39.9823 67.0995 37.6973Z" fill="#FDBD00" fill-opacity="0.45"/>
<path fill-rule="evenodd" clip-rule="evenodd" d="M37.363 40.1518C37.7768 42.1993 39.074 43.7861 40.7187 45.107C43.0071 46.9449 45.6444 50.2926 48.2233 48.8742C50.8452 47.4321 48.8438 43.4405 49.0983 40.4982C49.2498 38.7465 50.0972 37.1039 49.3806 35.4931C48.4286 33.353 47.0739 30.9843 44.7207 30.6573C42.2533 30.3145 39.9791 32.0287 38.4692 33.9771C37.1136 35.7263 36.9271 37.9952 37.363 40.1518Z" fill="#FDBD00" fill-opacity="0.45"/>
<path fill-rule="evenodd" clip-rule="evenodd" d="M27.3167 53.6546C29.0938 54.7978 31.1548 54.9986 33.266 54.7694C36.2034 54.4505 40.482 54.9439 41.2573 52.1412C42.0455 49.2917 37.7444 47.9012 35.7851 45.6625C34.6187 44.3297 34.0188 42.585 32.347 41.9599C30.1256 41.1294 27.4564 40.4215 25.5712 41.8438C23.5945 43.3352 23.2474 46.1312 23.6056 48.555C23.9272 50.7309 25.4448 52.4504 27.3167 53.6546Z" fill="#FDBD00" fill-opacity="0.45"/>
<path fill-rule="evenodd" clip-rule="evenodd" d="M40.4818 78.4598C43.9415 82.7738 50.1858 82.1413 55.0983 81.6495C58.592 81.2997 60.1626 77.8391 63.103 76.195C66.8713 74.0878 72.9426 75.0499 74.4151 70.848C76.0126 66.2896 73.9949 60.0117 70.1253 56.1564C66.4932 52.5378 61.2642 53.4892 56.5672 53.0663C52.7341 52.7211 48.7642 51.9831 45.7876 53.965C42.6804 56.034 41.4982 59.8139 40.6664 63.6539C39.6136 68.514 37.0195 74.1425 40.4818 78.4598Z" fill="#FDBD00" fill-opacity="0.45"/>
<path fill-rule="evenodd" clip-rule="evenodd" d="M43.6118 14.0766C44.5954 14.8717 46.006 14.4388 47.2445 14.1428C48.3615 13.8758 49.3492 13.4 50.0833 12.5299C51.1341 11.2843 52.7737 9.85134 52.1142 8.37058C51.4551 6.89068 49.2546 7.28255 47.6317 7.02523C46.3451 6.82124 44.9647 6.30954 43.9151 7.07058C42.8695 7.82875 42.8415 9.26311 42.7863 10.5385C42.7312 11.8108 42.612 13.2682 43.6118 14.0766Z" fill="#FDBD00" fill-opacity="0.45"/>
<path fill-rule="evenodd" clip-rule="evenodd" d="M72.9912 -7.46032C72.2541 -9.20848 70.3558 -10.3724 68.4353 -10.4684C66.6477 -10.5577 64.9283 -9.4399 64.0504 -7.90712C63.3583 -6.6988 64.5076 -5.37624 64.7338 -4.0059C64.9252 -2.84668 64.258 -1.36198 65.2411 -0.694603C66.2286 -0.02425 67.4467 -1.02124 68.5841 -1.3922C69.716 -1.76135 70.9788 -1.83776 71.6718 -2.79193C72.6756 -4.17411 73.6537 -5.88904 72.9912 -7.46032Z" fill="#FDBD00" fill-opacity="0.45"/>
<path fill-rule="evenodd" clip-rule="evenodd" d="M52.5429 -5.77246C52.8275 -4.3645 53.7195 -3.27335 54.8505 -2.36502C56.4241 -1.10119 58.2377 1.20089 60.011 0.225506C61.814 -0.766129 60.4377 -3.51102 60.6127 -5.53428C60.7169 -6.73879 61.2996 -7.86835 60.8069 -8.97597C60.1522 -10.4477 59.2207 -12.0765 57.6025 -12.3013C55.9057 -12.5371 54.3419 -11.3583 53.3036 -10.0185C52.3714 -8.81567 52.2432 -7.25547 52.5429 -5.77246Z" fill="#FDBD00" fill-opacity="0.45"/>
<path fill-rule="evenodd" clip-rule="evenodd" d="M45.6346 3.51271C46.8567 4.29885 48.2739 4.43693 49.7256 4.27933C51.7455 4.06004 54.6877 4.39934 55.2208 2.47202C55.7628 0.512573 52.8052 -0.443619 51.4579 -1.98306C50.6559 -2.89953 50.2433 -4.0993 49.0937 -4.5291C47.5662 -5.10018 45.7307 -5.58701 44.4343 -4.60896C43.075 -3.58343 42.8363 -1.66071 43.0827 0.00597C43.3038 1.50225 44.3474 2.68467 45.6346 3.51271Z" fill="#FDBD00" fill-opacity="0.45"/>
<path fill-rule="evenodd" clip-rule="evenodd" d="M54.6876 20.57C57.0666 23.5365 61.3605 23.1016 64.7386 22.7634C67.141 22.5228 68.2211 20.1432 70.243 19.0126C72.8343 17.5636 77.0092 18.2252 78.0218 15.3358C79.1203 12.2012 77.7328 7.88415 75.0719 5.2331C72.5743 2.74474 68.9785 3.39898 65.7487 3.10815C63.1128 2.87082 60.3829 2.36331 58.3361 3.72619C56.1994 5.1489 55.3865 7.74815 54.8145 10.3887C54.0906 13.7308 52.3067 17.6012 54.6876 20.57Z" fill="#FDBD00" fill-opacity="0.45"/>
<path fill-rule="evenodd" clip-rule="evenodd" d="M2.84816 15.1513C3.56937 15.7344 4.60378 15.4169 5.51196 15.1999C6.33112 15.0041 7.05537 14.6552 7.59369 14.0171C8.36427 13.1037 9.56655 12.0529 9.08295 10.9671C8.59963 9.88186 6.98602 10.1692 5.79593 9.98052C4.85247 9.83093 3.84023 9.4557 3.07055 10.0138C2.30377 10.5697 2.28323 11.6216 2.24275 12.5568C2.20237 13.4898 2.11494 14.5585 2.84816 15.1513Z" fill="#FDBD00" fill-opacity="0.45"/>
<path fill-rule="evenodd" clip-rule="evenodd" d="M24.3921 -0.641769C23.8516 -1.9237 22.4595 -2.77721 21.0513 -2.84759C19.7404 -2.9131 18.4796 -2.0934 17.8358 -0.96941C17.3283 -0.0833435 18.171 0.88649 18.3369 1.89137C18.4773 2.74142 17.988 3.83016 18.709 4.31955C19.4331 4.81112 20.3263 4.08002 21.1604 3.808C21.9904 3.5373 22.9164 3.48127 23.4246 2.78157C24.1607 1.76802 24.8779 0.510452 24.3921 -0.641769Z" fill="#FDBD00" fill-opacity="0.45"/>
<path fill-rule="evenodd" clip-rule="evenodd" d="M9.39735 0.595936C9.60603 1.6284 10.2601 2.42855 11.0895 3.09463C12.2434 4.0214 13.5733 5.70951 14.8737 4.99427C16.1958 4.2671 15.1866 2.25426 15.3149 0.770596C15.3913 -0.112671 15.8186 -0.940979 15.4573 -1.7532C14.9772 -2.8324 14.2941 -4.02683 13.1075 -4.1917C11.8633 -4.36458 10.7165 -3.50018 9.95514 -2.5177C9.2716 -1.63565 9.17754 -0.491554 9.39735 0.595936Z" fill="#FDBD00" fill-opacity="0.45"/>
<path fill-rule="evenodd" clip-rule="evenodd" d="M4.33144 7.40479C5.22759 7.98126 6.26685 8.08252 7.33142 7.96695C8.81262 7.80614 10.9701 8.05495 11.3611 6.64164C11.7585 5.20477 9.58967 4.5036 8.60171 3.37472C8.01355 2.70267 7.71101 1.82287 6.86799 1.5077C5.74788 1.08893 4.40189 0.731937 3.45128 1.44914C2.45451 2.20116 2.27949 3.6111 2.46011 4.83328C2.62227 5.93051 3.38754 6.79758 4.33144 7.40479Z" fill="#FDBD00" fill-opacity="0.45"/>
<path fill-rule="evenodd" clip-rule="evenodd" d="M10.97 19.9129C12.7146 22.0883 15.8633 21.7694 18.3405 21.5213C20.1022 21.345 20.8942 19.6 22.3769 18.7709C24.2771 17.7083 27.3385 18.1935 28.0811 16.0747C28.8866 13.776 27.8692 10.6104 25.9179 8.66635C24.0864 6.84162 21.4496 7.32138 19.0811 7.10812C17.1483 6.93409 15.1464 6.56193 13.6455 7.56133C12.0787 8.6046 11.4825 10.5106 11.0631 12.447C10.5322 14.8977 9.22414 17.7359 10.97 19.9129Z" fill="#FDBD00" fill-opacity="0.45"/>
<path fill-rule="evenodd" clip-rule="evenodd" d="M13.0689 -24.1963C13.5745 -23.7876 14.2996 -24.0101 14.9362 -24.1623C15.5104 -24.2995 16.0181 -24.5441 16.3954 -24.9913C16.9356 -25.6316 17.7784 -26.3682 17.4394 -27.1293C17.1006 -27.89 15.9695 -27.6886 15.1353 -27.8209C14.4739 -27.9257 13.7644 -28.1888 13.2248 -27.7976C12.6873 -27.4078 12.6729 -26.6705 12.6446 -26.015C12.6162 -25.361 12.555 -24.6118 13.0689 -24.1963Z" fill="#FDBD00" fill-opacity="0.45"/>
<path fill-rule="evenodd" clip-rule="evenodd" d="M28.1707 -35.2668C27.7918 -36.1654 26.816 -36.7637 25.8288 -36.813C24.9099 -36.859 24.0261 -36.2844 23.5749 -35.4965C23.2191 -34.8754 23.8099 -34.1955 23.9262 -33.4912C24.0245 -32.8953 23.6816 -32.1321 24.187 -31.7891C24.6946 -31.4445 25.3207 -31.957 25.9053 -32.1476C26.4871 -32.3374 27.1363 -32.3767 27.4925 -32.8671C28.0085 -33.5776 28.5112 -34.4591 28.1707 -35.2668Z" fill="#FDBD00" fill-opacity="0.45"/>
<path fill-rule="evenodd" clip-rule="evenodd" d="M17.6597 -34.3992C17.806 -33.6755 18.2645 -33.1146 18.8459 -32.6477C19.6548 -31.9981 20.587 -30.8147 21.4986 -31.3161C22.4253 -31.8258 21.7179 -33.2368 21.8078 -34.2768C21.8614 -34.8959 22.1609 -35.4766 21.9076 -36.0459C21.5711 -36.8024 21.0923 -37.6397 20.2605 -37.7552C19.3883 -37.8764 18.5844 -37.2705 18.0507 -36.5818C17.5716 -35.9635 17.5057 -35.1615 17.6597 -34.3992Z" fill="#FDBD00" fill-opacity="0.45"/>
<path fill-rule="evenodd" clip-rule="evenodd" d="M14.1087 -29.6264C14.7369 -29.2223 15.4654 -29.1513 16.2116 -29.2323C17.2499 -29.3451 18.7622 -29.1706 19.0362 -30.1613C19.3149 -31.1685 17.7945 -31.6601 17.102 -32.4514C16.6897 -32.9225 16.4777 -33.5392 15.8867 -33.7601C15.1016 -34.0536 14.1581 -34.3039 13.4917 -33.8011C12.793 -33.274 12.6703 -32.2857 12.7969 -31.429C12.9106 -30.6598 13.447 -30.052 14.1087 -29.6264Z" fill="#FDBD00" fill-opacity="0.45"/>
<path fill-rule="evenodd" clip-rule="evenodd" d="M18.7621 -20.8585C19.9851 -19.3336 22.1922 -19.5572 23.9286 -19.7311C25.1635 -19.8547 25.7187 -21.0779 26.758 -21.6591C28.09 -22.4039 30.236 -22.0638 30.7565 -23.549C31.3212 -25.1603 30.608 -27.3794 29.2402 -28.7421C27.9564 -30.0212 26.1081 -29.6849 24.4478 -29.8344C23.0929 -29.9563 21.6897 -30.2172 20.6376 -29.5167C19.5393 -28.7854 19.1214 -27.4493 18.8274 -26.092C18.4553 -24.374 17.5383 -22.3845 18.7621 -20.8585Z" fill="#FDBD00" fill-opacity="0.45"/>
<path fill-rule="evenodd" clip-rule="evenodd" d="M45.7367 -13.3045C47.0506 -13.3179 47.8726 -14.58 48.6511 -15.6217C49.3533 -16.5612 49.8122 -17.5813 49.8045 -18.7475C49.7936 -20.417 50.1211 -22.6184 48.6002 -23.358C47.0802 -24.0971 45.6065 -22.3523 44.1507 -21.497C42.9965 -20.8189 41.5605 -20.3227 41.2453 -19.0369C40.9312 -17.7559 41.8777 -16.6045 42.6953 -15.561C43.511 -14.52 44.401 -13.2909 45.7367 -13.3045Z" fill="#1E1E1E" fill-opacity="0.05"/>
<path fill-rule="evenodd" clip-rule="evenodd" d="M54.4022 -49.4815C52.6395 -50.3818 50.3538 -50.063 48.7719 -48.8861C47.2994 -47.7907 46.696 -45.7861 47.0375 -44.0026C47.3067 -42.5966 49.1077 -42.3015 50.2118 -41.3665C51.1458 -40.5756 51.6213 -38.9676 52.8486 -39.0816C54.0814 -39.1962 54.3704 -40.7783 55.0184 -41.8132C55.6633 -42.8432 56.6093 -43.7272 56.5124 -44.933C56.372 -46.6797 55.9866 -48.6724 54.4022 -49.4815Z" fill="#1E1E1E" fill-opacity="0.05"/>
<path fill-rule="evenodd" clip-rule="evenodd" d="M39.3884 -34.8103C40.564 -33.8837 42.0055 -33.6035 43.5123 -33.6237C45.6088 -33.6517 48.596 -33.016 49.3383 -34.9433C50.093 -36.9027 47.1522 -38.1734 45.9241 -39.8858C45.1931 -40.9053 44.8906 -42.1777 43.7534 -42.7313C42.2424 -43.4669 40.4066 -44.146 38.9765 -43.2681C37.4769 -42.3476 37.0375 -40.3964 37.122 -38.6607C37.1979 -37.1025 38.1502 -35.7863 39.3884 -34.8103Z" fill="#1E1E1E" fill-opacity="0.05"/>
<path fill-rule="evenodd" clip-rule="evenodd" d="M40.2011 -22.9691C41.6973 -23.1452 42.9102 -23.9605 43.9506 -25.032C45.3982 -26.5227 47.9515 -28.1738 47.0712 -30.0441C46.1762 -31.9455 43.194 -30.7717 41.0902 -31.109C39.8377 -31.3098 38.7016 -31.9885 37.5032 -31.5782C35.9109 -31.033 34.1321 -30.2203 33.7685 -28.6021C33.3872 -26.9053 34.497 -25.2307 35.8171 -24.0748C37.0022 -23.037 38.6251 -22.7836 40.2011 -22.9691Z" fill="#1E1E1E" fill-opacity="0.05"/>
<path fill-rule="evenodd" clip-rule="evenodd" d="M58.8711 -15.3993C62.7538 -14.6076 65.8521 -17.752 68.2923 -20.2226C70.0278 -21.9797 69.274 -24.564 70.1078 -26.776C71.1764 -29.6109 74.9212 -31.8115 73.77 -34.7545C72.521 -37.9473 68.5098 -40.4526 64.6175 -40.8113C60.9641 -41.1479 58.5654 -38.2856 55.8175 -36.4086C53.575 -34.8768 51.0757 -33.4971 50.3791 -31.0853C49.6519 -28.5677 50.7649 -25.9841 52.0962 -23.5251C53.7811 -20.4127 54.9856 -16.1916 58.8711 -15.3993Z" fill="#1E1E1E" fill-opacity="0.05"/>
<path fill-rule="evenodd" clip-rule="evenodd" d="M0.0160828 34.76C0.146118 35.5751 1.0339 35.9691 1.77586 36.3566C2.44508 36.706 3.14364 36.8969 3.89307 36.7843C4.96585 36.6232 6.41211 36.6233 6.74728 35.61C7.08224 34.5973 5.82371 33.8429 5.13902 33.0174C4.59621 32.363 4.14438 31.5167 3.28817 31.4397C2.43519 31.3629 1.78207 32.0574 1.18642 32.6618C0.592209 33.2648 -0.116112 33.9313 0.0160828 34.76Z" fill="#1E1E1E" fill-opacity="0.05"/>
<path fill-rule="evenodd" clip-rule="evenodd" d="M24.0866 36.8005C24.5027 35.6221 24.0864 34.2315 23.1833 33.3574C22.3426 32.5438 20.9974 32.3541 19.8818 32.7311C19.0023 33.0283 18.9789 34.1746 18.4796 34.947C18.0572 35.6003 17.0668 36.0444 17.2536 36.7964C17.4412 37.5518 18.4856 37.5851 19.2111 37.8921C19.9332 38.1975 20.5893 38.7036 21.3559 38.5319C22.4664 38.2833 23.7125 37.8597 24.0866 36.8005Z" fill="#1E1E1E" fill-opacity="0.05"/>
<path fill-rule="evenodd" clip-rule="evenodd" d="M13.2623 28.8283C12.7749 29.6443 12.7279 30.5658 12.8801 31.5001C13.0919 32.8001 12.9591 34.7148 14.2673 34.9979C15.5974 35.2857 16.1429 33.3411 17.1309 32.4199C17.7191 31.8714 18.5096 31.5659 18.7606 30.8082C19.0941 29.8015 19.3613 28.5981 18.6644 27.7907C17.9337 26.9441 16.638 26.8514 15.5295 27.0643C14.5342 27.2555 13.7756 27.9687 13.2623 28.8283Z" fill="#1E1E1E" fill-opacity="0.05"/>
<path fill-rule="evenodd" clip-rule="evenodd" d="M5.72092 30.4275C5.97247 31.3409 6.60899 32.019 7.3943 32.5664C8.48698 33.3281 9.78493 34.7619 10.9066 34.0421C12.0469 33.3103 11.0163 31.5659 11.0388 30.2276C11.0522 29.4309 11.3838 28.6623 11.0091 27.9557C10.5113 27.0167 9.82414 25.9867 8.74967 25.9103C7.62305 25.8302 6.64849 26.6745 6.02695 27.6015C5.46896 28.4337 5.45597 29.4654 5.72092 30.4275Z" fill="#1E1E1E" fill-opacity="0.05"/>
<path fill-rule="evenodd" clip-rule="evenodd" d="M2.57732 42.7268C2.42692 45.2123 4.73578 46.8467 6.55043 48.1345C7.84099 49.0504 9.43362 48.3432 10.9335 48.6569C12.8557 49.0588 14.6172 51.1821 16.4038 50.1948C18.342 49.1238 19.5828 46.4 19.4538 43.9486C19.3326 41.6477 17.2699 40.4218 15.8086 38.888C14.6161 37.6363 13.4977 36.211 11.882 36.0011C10.1955 35.7819 8.6365 36.7122 7.17783 37.7666C5.33163 39.1011 2.72784 40.2395 2.57732 42.7268Z" fill="#1E1E1E" fill-opacity="0.05"/>
<path fill-rule="evenodd" clip-rule="evenodd" d="M73.6649 41.2625C74.3544 42.4085 75.9247 42.4792 77.2723 42.6254C78.4878 42.7572 79.6511 42.6341 80.7066 42.0262C82.2175 41.156 84.3862 40.3086 84.2741 38.5928C84.1621 36.8779 81.8173 36.4842 80.2898 35.6476C79.0789 34.9844 77.8879 33.98 76.5573 34.3662C75.2317 34.751 74.6736 36.175 74.1471 37.4304C73.6218 38.6828 72.964 40.0973 73.6649 41.2625Z" fill="#1E1E1E" fill-opacity="0.05"/>
<path fill-rule="evenodd" clip-rule="evenodd" d="M110.997 30.2178C110.906 28.2069 109.438 26.3655 107.554 25.5841C105.8 24.8566 103.667 25.3604 102.223 26.5795C101.085 27.5405 101.745 29.273 101.465 30.7238C101.228 31.9511 100.012 33.1973 100.748 34.2155C101.488 35.2382 103.074 34.6762 104.348 34.7114C105.616 34.7463 106.907 35.1207 107.953 34.4141C109.467 33.3906 111.079 32.0252 110.997 30.2178Z" fill="#1E1E1E" fill-opacity="0.05"/>
<path fill-rule="evenodd" clip-rule="evenodd" d="M89.9295 24.6059C89.6937 26.1151 90.1822 27.5244 90.9773 28.8363C92.0835 30.6616 93.0459 33.6105 95.1793 33.2684C97.3484 32.9206 96.9868 29.685 97.9095 27.7246C98.4587 26.5576 99.4587 25.6363 99.3755 24.353C99.2648 22.6479 98.9355 20.6869 97.4007 19.8845C95.7915 19.0431 93.7923 19.6634 92.2591 20.6323C90.8827 21.5021 90.1779 23.0162 89.9295 24.6059Z" fill="#1E1E1E" fill-opacity="0.05"/>
<path fill-rule="evenodd" clip-rule="evenodd" d="M79.5912 31.4229C80.5225 32.6452 81.8884 33.2891 83.3981 33.6498C85.4986 34.1516 88.3147 35.5411 89.56 33.8045C90.826 32.0389 88.2223 30.0272 87.4443 28.0071C86.9811 26.8045 87.012 25.4577 86.0215 24.6177C84.7053 23.5014 83.0502 22.3595 81.3926 22.8746C79.6547 23.4147 78.7055 25.2518 78.3358 27.006C78.0039 28.5809 78.6103 30.1356 79.5912 31.4229Z" fill="#1E1E1E" fill-opacity="0.05"/>
<path fill-rule="evenodd" clip-rule="evenodd" d="M82.3385 51.7081C83.6208 55.5233 88.0745 56.6212 91.5768 57.4889C94.0676 58.106 96.0268 56.1125 98.4661 55.7039C101.592 55.1802 105.522 57.332 107.602 54.8047C109.859 52.0629 110.067 47.2515 108.386 43.6512C106.809 40.2718 102.972 39.6423 99.8504 38.1986C97.3029 37.0204 94.7611 35.5385 92.2111 36.1704C89.5491 36.8301 87.7757 39.1386 86.228 41.5744C84.2692 44.6573 81.0553 47.8901 82.3385 51.7081Z" fill="#1E1E1E" fill-opacity="0.05"/>
<path fill-rule="evenodd" clip-rule="evenodd" d="M37.1192 -6.38715C37.1591 -6.89837 36.6795 -7.2614 36.2871 -7.59991C35.9331 -7.90524 35.5384 -8.11879 35.0688 -8.15599C34.3965 -8.20923 33.5219 -8.4124 33.1718 -7.84664C32.822 -7.28121 33.4734 -6.64821 33.7675 -6.05281C34.0006 -5.58079 34.1508 -5.00546 34.6575 -4.83861C35.1622 -4.67239 35.6582 -5.00067 36.1063 -5.28257C36.5534 -5.56378 37.0787 -5.86742 37.1192 -6.38715Z" fill="#1E1E1E" fill-opacity="0.05"/>
<path fill-rule="evenodd" clip-rule="evenodd" d="M22.8582 -11.0021C22.4352 -10.3478 22.4847 -9.44831 22.9039 -8.79281C23.294 -8.18265 24.08 -7.87902 24.8095 -7.95034C25.3846 -8.00656 25.5654 -8.69651 25.9798 -9.09351C26.3302 -9.42934 26.9938 -9.55881 26.9902 -10.0398C26.9865 -10.523 26.3597 -10.6899 25.9656 -10.9774C25.5733 -11.2636 25.2501 -11.6618 24.7615 -11.6657C24.0537 -11.6713 23.2384 -11.5901 22.8582 -11.0021Z" fill="#1E1E1E" fill-opacity="0.05"/>
<path fill-rule="evenodd" clip-rule="evenodd" d="M28.2455 -4.66014C28.6589 -5.08522 28.8213 -5.63594 28.8651 -6.2224C28.926 -7.03838 29.2848 -8.17773 28.5347 -8.53268C27.7721 -8.89354 27.1594 -7.79411 26.428 -7.37571C25.9925 -7.12663 25.47 -7.05288 25.208 -6.62989C24.8599 -6.06785 24.5234 -5.37759 24.8274 -4.79139C25.1462 -4.17673 25.9164 -3.93869 26.6178 -3.91175C27.2475 -3.88757 27.81 -4.21241 28.2455 -4.66014Z" fill="#1E1E1E" fill-opacity="0.05"/>
<path fill-rule="evenodd" clip-rule="evenodd" d="M33.039 -4.56815C33.0197 -5.15587 32.7333 -5.65544 32.3379 -6.0968C31.7878 -6.7109 31.2113 -7.76036 30.4283 -7.48257C29.6322 -7.20016 30.0019 -6.00043 29.7937 -5.19419C29.6697 -4.71421 29.3574 -4.29594 29.4813 -3.81594C29.6459 -3.17815 29.9116 -2.45869 30.5504 -2.26158C31.2201 -2.05491 31.9323 -2.42866 32.443 -2.902C32.9015 -3.32694 33.0593 -3.94909 33.039 -4.56815Z" fill="#1E1E1E" fill-opacity="0.05"/>
<path fill-rule="evenodd" clip-rule="evenodd" d="M36.7286 -11.5652C37.181 -13.0473 36.0223 -14.3601 35.112 -15.3938C34.4647 -16.1289 33.3986 -15.925 32.5371 -16.3253C31.433 -16.8384 30.6764 -18.3699 29.4523 -18.0238C28.1244 -17.6483 26.9779 -16.1752 26.6995 -14.6745C26.4382 -13.2659 27.5074 -12.2348 28.1682 -11.1019C28.7074 -10.1774 29.1766 -9.15825 30.1232 -8.80437C31.1114 -8.43495 32.1895 -8.77862 33.225 -9.21143C34.5356 -9.75922 36.2759 -10.082 36.7286 -11.5652Z" fill="#1E1E1E" fill-opacity="0.05"/>
<path fill-rule="evenodd" clip-rule="evenodd" d="M40.2077 15.899C39.6972 15.7938 39.2687 16.214 38.8762 16.5525C38.5222 16.8578 38.2555 17.2147 38.1571 17.6675C38.0161 18.3157 37.6976 19.1417 38.2229 19.5563C38.7479 19.9706 39.4711 19.4179 40.11 19.2086C40.6164 19.0427 41.2164 18.971 41.4505 18.499C41.6837 18.0287 41.4169 17.5027 41.1906 17.0294C40.965 16.5573 40.7268 16.006 40.2077 15.899Z" fill="#1E1E1E" fill-opacity="0.05"/>
<path fill-rule="evenodd" clip-rule="evenodd" d="M33.7007 29.1973C34.3058 29.6945 35.2198 29.763 35.9355 29.4396C36.6017 29.1386 37.0101 28.4121 37.0328 27.6919C37.0507 27.1242 36.3781 26.8584 36.0314 26.4031C35.7381 26.018 35.6936 25.3545 35.2078 25.2956C34.7199 25.2365 34.4702 25.8256 34.1289 26.1724C33.7893 26.5175 33.3456 26.7808 33.2783 27.2565C33.1807 27.9455 33.1568 28.7505 33.7007 29.1973Z" fill="#1E1E1E" fill-opacity="0.05"/>
<path fill-rule="evenodd" clip-rule="evenodd" d="M40.7982 24.7706C40.423 24.3126 39.8885 24.0828 39.3025 23.964C38.4872 23.7987 37.3843 23.3012 36.9288 23.9861C36.4658 24.6824 37.4955 25.4222 37.8226 26.1893C38.0174 26.646 38.024 27.1648 38.4167 27.475C38.9385 27.8872 39.5912 28.3047 40.2221 28.0845C40.8836 27.8537 41.2237 27.134 41.3419 26.454C41.4481 25.8434 41.1934 25.2531 40.7982 24.7706Z" fill="#1E1E1E" fill-opacity="0.05"/>
<path fill-rule="evenodd" clip-rule="evenodd" d="M41.5132 20.1113C40.9178 20.0538 40.3766 20.2681 39.88 20.596C39.1891 21.0524 38.0555 21.478 38.2341 22.2771C38.4157 23.0895 39.674 22.885 40.4604 23.1926C40.9285 23.3757 41.31 23.7343 41.8103 23.6759C42.4751 23.5983 43.2355 23.4327 43.5172 22.8359C43.8127 22.21 43.5281 21.4675 43.1168 20.9084C42.7476 20.4064 42.1404 20.1718 41.5132 20.1113Z" fill="#1E1E1E" fill-opacity="0.05"/>
<path fill-rule="evenodd" clip-rule="evenodd" d="M34.933 15.6075C33.4965 14.9742 32.0217 15.933 30.8607 16.6859C30.0349 17.2213 30.1023 18.2866 29.5866 19.0742C28.9257 20.0835 27.2823 20.6221 27.4726 21.8599C27.6791 23.2027 29.0164 24.5112 30.4943 24.9773C31.8815 25.4148 33.0606 24.5066 34.2893 24.0098C35.292 23.6043 36.381 23.2794 36.8609 22.4028C37.3619 21.4878 37.1551 20.3926 36.8529 19.3273C36.4704 17.979 36.3706 16.2411 34.933 15.6075Z" fill="#1E1E1E" fill-opacity="0.05"/>
</svg>
