<svg width="769" height="802" viewBox="0 0 769 802" fill="none" xmlns="http://www.w3.org/2000/svg">
<g clip-path="url(#clip0_6413_1698)">
<path d="M655.489 53.7135C655.463 61.4609 656.694 69.5315 659.487 76.758C664.293 89.1955 661.97 103.83 652.281 114.253C642.522 124.753 627.955 128.112 615.132 124.09C607.794 121.789 599.727 121.092 592.052 121.573C585.971 121.953 580.324 120.296 576.137 116.404C566.102 107.076 568.253 88.4478 580.942 74.796C583.198 72.3685 585.636 70.2618 588.175 68.4909C593.833 64.5456 598.743 59.2627 602.265 53.3318C603.846 50.6698 605.769 48.0849 608.025 45.6574C620.714 32.0056 639.136 28.5002 649.171 37.8279C653.448 41.8025 655.511 47.466 655.489 53.7135Z" fill="#080808" fill-opacity="0.05"/>
<path fill-rule="evenodd" clip-rule="evenodd" d="M715.212 108.19C729.312 124.084 737.486 146.127 726.092 156.235C715.102 165.984 695.041 153.481 681.44 138.15C671.083 126.475 671.448 111.497 679.817 104.073C688.709 96.1839 704.207 95.7844 715.212 108.19Z" fill="#080808" fill-opacity="0.05"/>
<path fill-rule="evenodd" clip-rule="evenodd" d="M649.755 178.613C666.636 191.516 689.217 198.058 698.466 185.957C707.387 174.285 693.452 155.19 677.169 142.745C664.77 133.268 649.859 134.725 643.065 143.613C635.846 153.058 636.579 168.543 649.755 178.613Z" fill="#080808" fill-opacity="0.05"/>
<path fill-rule="evenodd" clip-rule="evenodd" d="M586.717 162.371C597.291 178.365 614.605 190.623 626.07 183.043C637.129 175.733 630.899 155.332 620.701 139.905C612.934 128.157 599.792 124.987 591.37 130.555C582.422 136.47 578.465 149.888 586.717 162.371Z" fill="#080808" fill-opacity="0.05"/>
<path fill-rule="evenodd" clip-rule="evenodd" d="M695.869 44.9374C712.592 54.315 726.081 70.6881 719.359 82.6759C712.875 94.239 692.074 89.5153 675.944 80.4701C663.66 73.582 659.539 60.7061 664.477 51.9007C669.724 42.5444 682.816 37.6185 695.869 44.9374Z" fill="#080808" fill-opacity="0.05"/>
<path d="M732.368 450.089C730.076 453.715 728.28 457.863 727.464 462.074C726.06 469.321 720.666 475.502 713.055 477.541C705.389 479.595 697.569 476.886 692.737 471.227C689.972 467.989 686.394 465.289 682.653 463.257C679.688 461.647 677.527 459.209 676.708 456.152C674.745 448.825 681.233 440.72 691.201 438.049C692.973 437.574 694.736 437.303 696.448 437.22C700.262 437.033 704.12 436 707.516 434.254C709.04 433.47 710.703 432.824 712.475 432.349C722.443 429.678 732.114 433.453 734.077 440.78C734.914 443.902 734.216 447.165 732.368 450.089Z" fill="#080808" fill-opacity="0.05"/>
<path fill-rule="evenodd" clip-rule="evenodd" d="M744.356 493.208C746.294 504.81 743.644 517.554 735.327 518.943C727.304 520.283 721.573 508.518 719.703 497.326C718.279 488.804 722.856 481.886 728.965 480.865C735.457 479.781 742.843 484.152 744.356 493.208Z" fill="#080808" fill-opacity="0.05"/>
<path fill-rule="evenodd" clip-rule="evenodd" d="M692.939 506.985C697.061 518.002 705.728 527.713 713.626 524.758C721.244 521.907 720.325 508.852 716.348 498.225C713.32 490.133 705.897 486.43 700.096 488.601C693.932 490.907 689.721 498.386 692.939 506.985Z" fill="#080808" fill-opacity="0.05"/>
<path fill-rule="evenodd" clip-rule="evenodd" d="M668.149 480.824C668.404 491.436 672.919 502.279 680.527 502.096C687.864 501.92 690.943 490.519 690.697 480.283C690.51 472.488 685.278 467.136 679.691 467.27C673.753 467.412 667.951 472.542 668.149 480.824Z" fill="#080808" fill-opacity="0.05"/>
<path fill-rule="evenodd" clip-rule="evenodd" d="M753.889 457.85C758.974 467.168 760.485 478.815 753.806 482.461C747.364 485.977 738.996 477.643 734.091 468.655C730.356 461.811 732.211 454.56 737.117 451.882C742.33 449.037 749.92 450.578 753.889 457.85Z" fill="#080808" fill-opacity="0.05"/>
<path d="M480.539 27.4676C480.525 31.4294 481.155 35.5564 482.583 39.2518C485.041 45.612 483.853 53.0956 478.898 58.4258C473.908 63.7952 466.459 65.5128 459.901 63.4562C456.149 62.2795 452.024 61.9228 448.099 62.1686C444.989 62.3635 442.102 61.5157 439.961 59.5256C434.829 54.7557 435.929 45.2297 442.418 38.2485C443.571 37.0072 444.818 35.9299 446.117 35.0243C449.01 33.0068 451.521 30.3053 453.322 27.2724C454.13 25.9111 455.114 24.5893 456.267 23.3479C462.756 16.3668 472.176 14.5742 477.308 19.3441C479.495 21.3767 480.55 24.2728 480.539 27.4676Z" fill="#080808" fill-opacity="0.05"/>
<path fill-rule="evenodd" clip-rule="evenodd" d="M511.079 55.325C518.29 63.4528 522.469 74.725 516.643 79.8938C511.023 84.8795 500.765 78.4855 493.81 70.6457C488.513 64.6755 488.7 57.0165 492.979 53.2199C497.527 49.1857 505.452 48.9814 511.079 55.325Z" fill="#080808" fill-opacity="0.05"/>
<path fill-rule="evenodd" clip-rule="evenodd" d="M477.606 91.3376C486.239 97.9356 497.786 101.281 502.516 95.0929C507.078 89.124 499.952 79.3597 491.626 72.9955C485.285 68.1491 477.66 68.8943 474.186 73.4397C470.494 78.2694 470.869 86.1881 477.606 91.3376Z" fill="#080808" fill-opacity="0.05"/>
<path fill-rule="evenodd" clip-rule="evenodd" d="M445.371 83.0316C450.778 91.2104 459.632 97.4789 465.495 93.6031C471.15 89.8645 467.964 79.4322 462.749 71.5432C458.777 65.5356 452.057 63.9148 447.75 66.7618C443.174 69.7869 441.151 76.6482 445.371 83.0316Z" fill="#080808" fill-opacity="0.05"/>
<path fill-rule="evenodd" clip-rule="evenodd" d="M501.188 22.9798C509.739 27.7751 516.638 36.1479 513.2 42.2781C509.884 48.1911 499.247 45.7756 490.999 41.1501C484.717 37.6277 482.61 31.0434 485.135 26.5405C487.818 21.756 494.513 19.237 501.188 22.9798Z" fill="#080808" fill-opacity="0.05"/>
<path d="M485.693 329.594C487.197 332.456 489.227 335.192 491.669 337.312C495.871 340.96 497.872 346.811 496.335 352.547C494.787 358.326 490.071 362.41 484.556 363.432C481.4 364.016 478.289 365.334 475.552 367.011C473.384 368.339 470.977 368.831 468.673 368.213C463.15 366.734 460.305 359.443 462.318 351.93C462.676 350.594 463.164 349.341 463.754 348.192C465.07 345.631 465.849 342.724 465.99 339.849C466.053 338.558 466.257 337.229 466.615 335.893C468.628 328.38 474.737 323.489 480.26 324.969C482.614 325.6 484.481 327.285 485.693 329.594Z" fill="#080808" fill-opacity="0.05"/>
<path fill-rule="evenodd" clip-rule="evenodd" d="M518.36 338.019C526.664 341.127 533.984 347.66 531.757 353.613C529.608 359.355 519.767 358.662 511.757 355.665C505.656 353.382 502.866 347.787 504.502 343.414C506.24 338.768 511.878 335.594 518.36 338.019Z" fill="#080808" fill-opacity="0.05"/>
<path fill-rule="evenodd" clip-rule="evenodd" d="M507.974 376.777C516.72 378.238 526.326 376.24 527.374 369.971C528.384 363.923 519.515 359.603 511.079 358.194C504.655 357.121 499.44 360.57 498.671 365.176C497.853 370.069 501.148 375.637 507.974 376.777Z" fill="#080808" fill-opacity="0.05"/>
<path fill-rule="evenodd" clip-rule="evenodd" d="M481.554 383.099C488.577 386.933 497.357 388.072 500.105 383.037C502.755 378.181 496.473 371.874 489.699 368.176C484.54 365.36 479.074 366.759 477.055 370.457C474.91 374.386 476.072 380.108 481.554 383.099Z" fill="#080808" fill-opacity="0.05"/>
<path fill-rule="evenodd" clip-rule="evenodd" d="M498.871 318.47C506.87 318.662 515.043 322.065 514.906 327.8C514.773 333.331 506.179 335.651 498.463 335.466C492.587 335.325 488.553 331.381 488.654 327.169C488.761 322.694 492.628 318.32 498.871 318.47Z" fill="#080808" fill-opacity="0.05"/>
<path d="M477.821 631.583C474.016 637.595 471.032 644.472 469.675 651.452C467.34 663.467 458.382 673.715 445.75 677.1C433.025 680.51 420.047 676.024 412.03 666.647C407.443 661.282 401.506 656.808 395.297 653.442C390.378 650.775 386.793 646.734 385.435 641.667C382.181 629.523 392.956 616.084 409.501 611.651C412.443 610.863 415.369 610.412 418.211 610.273C424.542 609.962 430.944 608.246 436.583 605.35C439.113 604.05 441.873 602.977 444.815 602.189C461.36 597.756 477.41 604.006 480.664 616.151C482.051 621.326 480.89 626.735 477.821 631.583Z" fill="#080808" fill-opacity="0.05"/>
<path fill-rule="evenodd" clip-rule="evenodd" d="M497.692 703.051C500.902 722.283 496.495 743.408 482.689 745.716C469.373 747.943 459.868 728.443 456.771 709.893C454.413 695.767 462.014 684.297 472.155 682.601C482.93 680.8 495.187 688.041 497.692 703.051Z" fill="#080808" fill-opacity="0.05"/>
<path fill-rule="evenodd" clip-rule="evenodd" d="M412.343 725.92C419.179 744.18 433.558 760.272 446.668 755.368C459.314 750.638 457.796 728.999 451.202 711.385C446.181 697.973 433.864 691.84 424.234 695.442C414.002 699.269 407.007 711.668 412.343 725.92Z" fill="#080808" fill-opacity="0.05"/>
<path fill-rule="evenodd" clip-rule="evenodd" d="M371.215 682.57C371.631 700.161 379.118 718.131 391.744 717.824C403.923 717.527 409.04 698.626 408.639 681.659C408.333 668.738 399.653 659.869 390.379 660.095C380.524 660.335 370.89 668.841 371.215 682.57Z" fill="#080808" fill-opacity="0.05"/>
<path fill-rule="evenodd" clip-rule="evenodd" d="M513.536 644.435C521.971 659.877 524.472 679.184 513.384 685.231C502.688 691.063 488.806 677.253 480.67 662.359C474.474 651.016 477.557 638.995 485.702 634.553C494.356 629.834 506.953 632.383 513.536 644.435Z" fill="#080808" fill-opacity="0.05"/>
<path d="M315.585 68.0393C314.852 65.0489 313.602 62.0546 311.831 59.5357C308.784 55.2005 308.275 49.3336 311.011 44.3837C313.767 39.3975 319.062 36.7039 324.394 37.024C327.444 37.2071 330.622 36.7018 333.536 35.7796C335.845 35.0489 338.182 35.1462 340.17 36.2452C344.936 38.8792 345.894 46.2699 342.311 52.7528C341.674 53.9056 340.936 54.9521 340.127 55.8788C338.323 57.9434 336.937 60.4522 336.148 63.0775C335.794 64.2559 335.3 65.4373 334.663 66.5901C331.08 73.0731 324.312 76.1932 319.546 73.5593C317.516 72.4369 316.176 70.4508 315.585 68.0393Z" fill="#080808" fill-opacity="0.05"/>
<path fill-rule="evenodd" clip-rule="evenodd" d="M287.323 52.763C280.36 47.9868 275.092 40.2702 278.515 35.2784C281.818 30.4634 290.755 33.3599 297.472 37.9669C302.587 41.4752 303.884 47.2864 301.369 50.953C298.697 54.8491 292.758 56.4907 287.323 52.763Z" fill="#080808" fill-opacity="0.05"/>
<path fill-rule="evenodd" clip-rule="evenodd" d="M305.807 19.3202C298.058 15.9647 288.722 15.6092 286.317 21.164C283.996 26.5218 291.203 32.5481 298.678 35.7847C304.37 38.2495 309.98 36.2562 311.747 32.1761C313.624 27.8407 311.855 21.9391 305.807 19.3202Z" fill="#080808" fill-opacity="0.05"/>
<path fill-rule="evenodd" clip-rule="evenodd" d="M331.677 19.5334C326.064 14.3801 318.21 11.3146 314.516 15.3382C310.953 19.2193 315.314 26.4889 320.728 31.4596C324.851 35.2448 330.224 35.2056 332.937 32.2501C335.82 29.1098 336.058 23.5554 331.677 19.5334Z" fill="#080808" fill-opacity="0.05"/>
<path fill-rule="evenodd" clip-rule="evenodd" d="M300.855 75.2999C293.505 73.2886 286.731 68.2691 288.173 63.0006C289.564 57.9188 298.039 57.7438 305.128 59.6838C310.527 61.1612 313.352 65.7313 312.293 69.6012C311.167 73.7131 306.591 76.8696 300.855 75.2999Z" fill="#080808" fill-opacity="0.05"/>
<path d="M277.277 318.38C277.063 323.732 277.71 329.338 279.457 334.401C282.463 343.115 280.488 353.167 273.532 360.124C266.524 367.131 256.376 369.084 247.618 365.982C242.607 364.206 237.052 363.521 231.737 363.659C227.526 363.769 223.667 362.481 220.872 359.687C214.175 352.989 216.131 340.174 225.242 331.062C226.863 329.442 228.6 328.048 230.399 326.889C234.407 324.306 237.933 320.781 240.516 316.772C241.675 314.973 243.069 313.236 244.689 311.616C253.8 302.504 266.616 300.548 273.313 307.245C276.167 310.099 277.45 314.064 277.277 318.38Z" fill="#080808" fill-opacity="0.05"/>
<path fill-rule="evenodd" clip-rule="evenodd" d="M317.161 357.523C326.502 368.86 331.592 384.295 323.465 390.991C315.626 397.449 302.083 388.304 293.073 377.369C286.213 369.042 286.843 358.704 292.812 353.786C299.155 348.56 309.872 348.675 317.161 357.523Z" fill="#080808" fill-opacity="0.05"/>
<path fill-rule="evenodd" clip-rule="evenodd" d="M270.161 404.524C281.498 413.864 296.933 418.954 303.629 410.827C310.087 402.988 300.942 389.445 290.007 380.436C281.679 373.575 271.341 374.205 266.423 380.175C261.198 386.517 261.313 397.234 270.161 404.524Z" fill="#080808" fill-opacity="0.05"/>
<path fill-rule="evenodd" clip-rule="evenodd" d="M227.021 391.71C233.922 403.027 245.574 411.933 253.686 406.986C261.511 402.215 257.723 387.963 251.066 377.048C245.997 368.735 236.998 366.214 231.039 369.847C224.708 373.708 221.635 382.878 227.021 391.71Z" fill="#080808" fill-opacity="0.05"/>
<path fill-rule="evenodd" clip-rule="evenodd" d="M305.395 313.336C316.712 320.237 325.618 331.89 320.671 340.002C315.899 347.826 301.648 344.038 290.732 337.381C282.42 332.313 279.898 323.313 283.532 317.354C287.393 311.023 296.563 307.95 305.395 313.336Z" fill="#080808" fill-opacity="0.05"/>
<path d="M279.695 666.207C282.937 668.256 286.645 669.862 290.409 670.591C296.889 671.846 302.414 676.669 304.237 683.473C306.073 690.326 303.651 697.317 298.593 701.637C295.698 704.108 293.284 707.307 291.468 710.652C290.028 713.302 287.848 715.234 285.115 715.966C278.565 717.721 271.32 711.921 268.932 703.01C268.507 701.426 268.265 699.85 268.19 698.319C268.024 694.909 267.1 691.461 265.539 688.425C264.839 687.062 264.26 685.576 263.836 683.991C261.448 675.081 264.823 666.434 271.373 664.679C274.164 663.931 277.081 664.555 279.695 666.207Z" fill="#080808" fill-opacity="0.05"/>
<path fill-rule="evenodd" clip-rule="evenodd" d="M318.243 655.49C328.615 653.758 340.008 656.127 341.25 663.563C342.448 670.735 331.93 675.858 321.925 677.53C314.306 678.803 308.121 674.711 307.209 669.249C306.239 663.446 310.147 656.843 318.243 655.49Z" fill="#080808" fill-opacity="0.05"/>
<path fill-rule="evenodd" clip-rule="evenodd" d="M330.559 701.457C340.409 697.771 349.09 690.023 346.448 682.962C343.9 676.152 332.229 676.974 322.728 680.529C315.494 683.236 312.184 689.872 314.124 695.058C316.186 700.568 322.872 704.333 330.559 701.457Z" fill="#080808" fill-opacity="0.05"/>
<path fill-rule="evenodd" clip-rule="evenodd" d="M307.172 723.618C316.659 723.39 326.352 719.353 326.189 712.553C326.031 705.993 315.839 703.241 306.688 703.46C299.72 703.627 294.935 708.305 295.055 713.3C295.182 718.608 299.768 723.795 307.172 723.618Z" fill="#080808" fill-opacity="0.05"/>
<path fill-rule="evenodd" clip-rule="evenodd" d="M286.634 646.968C294.964 642.422 305.376 641.071 308.635 647.042C311.779 652.802 304.328 660.282 296.293 664.667C290.175 668.006 283.692 666.348 281.299 661.962C278.755 657.302 280.133 650.516 286.634 646.968Z" fill="#080808" fill-opacity="0.05"/>
<path d="M78.5163 41.4468C81.8199 47.7484 86.2829 53.7709 91.6502 58.4362C100.888 66.4655 105.284 79.3473 101.899 91.9799C98.4896 104.705 88.1154 113.701 75.987 115.955C69.047 117.245 62.2041 120.151 56.1846 123.844C51.4151 126.771 46.1229 127.855 41.0561 126.498C28.9119 123.244 22.661 107.193 27.0942 90.6481C27.8825 87.7061 28.9556 84.9466 30.2555 82.4159C33.1516 76.7775 34.8671 70.375 35.1782 64.0439C35.3178 61.2023 35.7683 58.276 36.5566 55.334C40.9899 38.7889 54.4285 28.0143 66.5727 31.2684C71.7476 32.655 75.8523 36.365 78.5163 41.4468Z" fill="#080808" fill-opacity="0.05"/>
<path fill-rule="evenodd" clip-rule="evenodd" d="M150.344 59.9721C168.605 66.808 184.696 81.1872 179.792 94.2974C175.062 106.943 153.423 105.425 135.81 98.8316C122.397 93.8104 116.264 81.4933 119.866 71.8634C123.693 61.6311 136.093 54.6368 150.344 59.9721Z" fill="#080808" fill-opacity="0.05"/>
<path fill-rule="evenodd" clip-rule="evenodd" d="M127.475 145.321C146.707 148.531 167.832 144.124 170.14 130.319C172.367 117.002 152.868 107.497 134.317 104.401C120.191 102.043 108.721 109.643 107.026 119.784C105.224 130.559 112.465 142.816 127.475 145.321Z" fill="#080808" fill-opacity="0.05"/>
<path fill-rule="evenodd" clip-rule="evenodd" d="M69.3689 159.264C84.8108 167.699 104.117 170.2 110.164 159.112C115.997 148.416 102.187 134.534 87.2922 126.398C75.9496 120.203 63.9284 123.286 59.4868 131.43C54.7673 140.084 57.3168 152.681 69.3689 159.264Z" fill="#080808" fill-opacity="0.05"/>
<path fill-rule="evenodd" clip-rule="evenodd" d="M107.504 16.9427C125.094 17.3589 143.065 24.8465 142.757 37.4726C142.461 49.6513 123.56 54.7687 106.593 54.3672C93.6721 54.0615 84.8029 45.3811 85.0286 36.1068C85.2685 26.2523 93.7748 16.6179 107.504 16.9427Z" fill="#080808" fill-opacity="0.05"/>
</g>
<defs>
<clipPath id="clip0_6413_1698">
<rect width="802" height="769" fill="white" transform="translate(769) rotate(90)"/>
</clipPath>
</defs>
</svg>
