<svg width="680" height="892" viewBox="0 0 680 892" fill="none" xmlns="http://www.w3.org/2000/svg">
<path d="M171.524 158.128C166.592 160.976 160.284 159.286 157.436 154.354C152.065 145.05 149.482 136.494 149.687 128.684C149.971 120.581 153.264 112.105 159.567 103.256L163.42 97.6824C169.802 88.5396 173.976 80.2995 175.942 72.962C177.801 65.4384 176.421 57.6761 171.801 49.675C168.363 43.7207 163.974 39.5562 158.634 37.1815C153.186 34.6207 147.119 33.7816 140.434 34.6642C133.935 35.4393 127.243 37.8143 120.358 41.7891C113.101 45.9789 107.287 50.9483 102.915 56.6975C98.7298 62.3393 96.2659 68.5997 95.5237 75.4788C94.8601 82.0643 96.6232 88.9854 100.813 96.2422C103.127 100.25 101.754 105.375 97.7458 107.689L78.7665 118.646C75.067 120.782 70.3364 119.515 68.2005 115.815C60.7879 102.976 57.5198 90.2255 58.3962 77.5629C59.3512 64.6067 63.8282 52.5943 71.8272 41.5255C79.8263 30.4568 90.5243 21.055 103.922 13.3202C117.133 5.69274 130.252 1.34367 143.279 0.272971C156.306 -0.797743 168.174 1.28141 178.884 6.51043C189.673 11.4459 198.29 19.4959 204.736 30.6602C211.074 41.6384 214.238 51.8446 214.226 61.2787C214.401 70.6055 212.614 79.328 208.866 87.4463C205.118 95.5646 200.808 103.139 195.936 110.17L191.804 115.905C189.314 119.327 188.062 122.53 188.049 125.515C188.035 128.5 189.211 132.039 191.574 136.133C194.066 140.449 192.587 145.968 188.271 148.46L171.524 158.128ZM217.884 218.444C211 222.419 203.849 223.57 196.433 221.898C189.096 219.932 183.332 215.32 179.142 208.063C174.952 200.807 173.841 193.509 175.807 186.172C177.959 178.727 182.477 173.017 189.362 169.042C196.433 164.96 203.637 163.902 210.974 165.868C218.498 167.727 224.355 172.284 228.544 179.541C232.734 186.798 233.753 194.149 231.601 201.594C229.527 208.745 224.955 214.362 217.884 218.444Z" fill="#080808" fill-opacity="0.05"/>
<path d="M31.3143 267.963C29.9319 265.569 30.7522 262.507 33.1466 261.125C37.6626 258.518 41.8159 257.264 45.6065 257.363C49.5397 257.501 53.654 259.1 57.9494 262.159L60.6548 264.029C65.0927 267.127 69.0925 269.153 72.6541 270.108C76.3061 271.01 80.0739 270.34 83.9576 268.097C86.8479 266.429 88.8693 264.298 90.022 261.706C91.265 259.061 91.6723 256.117 91.2439 252.872C90.8677 249.717 89.7148 246.469 87.7854 243.127C85.7517 239.605 83.3396 236.782 80.5489 234.66C77.8104 232.629 74.7716 231.433 71.4325 231.072C68.2359 230.75 64.8764 231.606 61.3539 233.64C59.4085 234.763 56.9209 234.096 55.7978 232.151L50.4789 222.938C49.4421 221.143 50.0574 218.846 51.8531 217.81C58.0851 214.212 64.2744 212.625 70.4209 213.051C76.7098 213.514 82.5406 215.687 87.9134 219.57C93.2862 223.453 97.8498 228.646 101.604 235.149C105.307 241.561 107.418 247.929 107.937 254.253C108.457 260.576 107.448 266.337 104.91 271.536C102.514 276.772 98.6066 280.955 93.1875 284.084C87.8586 287.161 82.9045 288.696 78.3252 288.691C73.798 288.776 69.5641 287.908 65.6234 286.089C61.6828 284.27 58.0062 282.177 54.5935 279.812L51.8098 277.807C50.1486 276.598 48.5936 275.991 47.1447 275.984C45.6959 275.978 43.978 276.548 41.9909 277.695C39.8959 278.905 37.217 278.187 36.0074 276.092L31.3143 267.963ZM2.03696 290.466C0.107564 287.124 -0.451197 283.654 0.360673 280.054C1.31501 276.492 3.5534 273.695 7.07586 271.661C10.5983 269.627 14.1404 269.087 17.702 270.042C21.3158 271.086 24.0873 273.28 26.0167 276.621C27.9983 280.054 28.5119 283.551 27.5576 287.112C26.6554 290.764 24.443 293.607 20.9206 295.641C17.3981 297.674 13.83 298.169 10.2162 297.124C6.74493 296.118 4.0185 293.898 2.03696 290.466Z" fill="#080808" fill-opacity="0.05"/>
<path d="M380.756 180.509C384.664 182.642 389.563 181.203 391.696 177.294C395.72 169.922 397.579 163.186 397.272 157.085C396.898 150.757 394.165 144.194 389.073 137.396L385.957 133.111C380.797 126.085 377.38 119.723 375.706 114.024C374.112 108.179 375.045 102.086 378.506 95.7452C381.081 91.0268 384.434 87.6894 388.564 85.7332C392.774 83.6295 397.5 82.8599 402.742 83.4244C407.836 83.9084 413.111 85.6392 418.567 88.617C424.317 91.7557 428.955 95.5309 432.48 99.9426C435.857 104.274 437.9 109.121 438.609 114.484C439.252 119.619 438.003 125.061 434.865 130.812C433.131 133.988 434.301 137.968 437.476 139.701L452.516 147.91C455.448 149.51 459.122 148.431 460.722 145.499C466.275 135.325 468.59 125.297 467.668 115.417C466.679 105.308 462.954 96.0025 456.494 87.501C450.035 78.9995 441.497 71.8515 430.88 66.057C420.411 60.343 410.076 57.1896 399.873 56.597C389.671 56.0043 380.433 57.852 372.16 62.1399C363.82 66.1998 357.236 72.6533 352.407 81.5004C347.659 90.2 345.378 98.2366 345.563 105.61C345.602 112.903 347.162 119.688 350.243 125.963C353.325 132.238 356.836 138.077 360.776 143.481L364.113 147.886C366.124 150.514 367.162 152.995 367.228 155.328C367.295 157.661 366.443 160.449 364.672 163.693C362.805 167.113 364.065 171.399 367.485 173.266L380.756 180.509ZM345.651 228.522C351.107 231.5 356.717 232.265 362.482 230.819C368.181 229.145 372.599 225.432 375.738 219.682C378.876 213.931 379.609 208.207 377.934 202.508C376.113 196.73 372.474 192.351 367.018 189.374C361.415 186.316 355.764 185.624 350.066 187.298C344.22 188.892 339.728 192.564 336.589 198.314C333.451 204.065 332.792 209.83 334.614 215.608C336.369 221.159 340.048 225.464 345.651 228.522Z" fill="#080808" fill-opacity="0.05"/>
<path d="M166.247 840.259C167.485 835.982 165.021 831.51 160.744 830.272C152.676 827.937 145.697 827.579 139.807 829.197C133.71 830.93 127.892 835.017 122.355 841.459L118.846 845.427C113.101 851.984 107.628 856.696 102.426 859.562C97.0634 862.382 90.9127 862.788 83.9741 860.78C78.8105 859.285 74.8274 856.733 72.0246 853.124C69.0605 849.468 67.2875 845.02 66.7055 839.78C66.0767 834.702 66.6263 829.177 68.3543 823.207C70.1756 816.914 72.859 811.57 76.4045 807.175C79.9032 802.941 84.1939 799.898 89.2767 798.047C94.1513 796.31 99.7352 796.352 106.028 798.173C109.504 799.179 113.137 797.177 114.143 793.701L118.906 777.242C119.835 774.034 117.987 770.681 114.779 769.752C103.645 766.53 93.3536 766.437 83.9058 769.473C74.2498 772.625 65.9698 778.273 59.0658 786.417C52.1617 794.562 47.0284 804.444 43.6659 816.062C40.3501 827.518 39.5057 838.291 41.1325 848.38C42.7594 858.47 46.5602 867.089 52.5352 874.24C58.302 881.505 66.0263 886.539 75.708 889.341C85.2284 892.096 93.5681 892.586 100.727 890.811C107.84 889.197 114.126 886.207 119.587 881.842C125.047 877.476 129.99 872.786 134.414 867.771L137.994 863.56C140.125 861.029 142.323 859.479 144.586 858.91C146.849 858.341 149.756 858.57 153.306 859.598C157.049 860.681 160.961 858.525 162.044 854.782L166.247 840.259ZM220.714 864.155C222.442 858.184 221.976 852.541 219.318 847.225C216.451 842.023 211.872 838.512 205.579 836.691C199.285 834.869 193.538 835.392 188.336 838.258C183.088 841.286 179.6 845.785 177.872 851.756C176.098 857.887 176.643 863.554 179.51 868.756C182.33 874.119 186.886 877.711 193.179 879.532C199.473 881.353 205.243 880.75 210.491 877.722C215.532 874.809 218.939 870.287 220.714 864.155Z" fill="#080808" fill-opacity="0.05"/>
<path d="M644.703 403.943C649.157 405.137 651.799 409.714 650.606 414.167C648.356 422.567 644.937 428.943 640.35 433.295C635.549 437.771 628.813 440.737 620.14 442.194L614.745 443.179C605.859 444.759 598.754 447.087 593.429 450.161C588.058 453.403 584.406 458.636 582.47 465.86C581.03 471.236 581.158 476.131 582.856 480.547C584.508 485.131 587.5 489.084 591.832 492.405C595.995 495.681 601.185 498.152 607.401 499.818C613.952 501.573 620.124 502.057 625.917 501.268C631.542 500.435 636.536 498.262 640.898 494.749C645.047 491.36 647.999 486.389 649.755 479.838C650.724 476.219 654.443 474.072 658.062 475.042L675.197 479.633C678.537 480.528 680.519 483.961 679.624 487.301C676.518 498.892 671.09 508.061 663.341 514.807C655.379 521.676 645.941 525.989 635.027 527.746C624.113 529.503 612.609 528.761 600.514 525.52C588.587 522.324 578.588 517.304 570.519 510.461C562.45 503.618 556.847 495.634 553.71 486.512C550.36 477.512 550.035 467.972 552.736 457.893C555.392 447.981 559.423 440.329 564.829 434.936C570.067 429.497 576.082 425.528 582.874 423.026C589.666 420.525 596.469 418.657 603.281 417.421L608.929 416.504C612.313 415.97 614.863 414.853 616.579 413.152C618.295 411.451 619.648 408.753 620.638 405.057C621.682 401.161 625.688 398.848 629.584 399.892L644.703 403.943ZM652.691 342.886C658.907 344.552 663.658 347.985 666.946 353.187C670.02 358.512 670.68 364.451 668.924 371.002C667.169 377.554 663.628 382.367 658.303 385.441C652.81 388.471 646.956 389.153 640.74 387.487C634.357 385.777 629.628 382.259 626.553 376.934C623.311 371.564 622.568 365.603 624.323 359.052C626.079 352.5 629.703 347.709 635.196 344.68C640.476 341.774 646.308 341.176 652.691 342.886Z" fill="#080808" fill-opacity="0.05"/>
<path d="M337.636 701.347C326.418 707.824 312.073 703.98 305.597 692.762C293.381 671.604 287.506 652.145 287.972 634.384C288.618 615.957 296.108 596.68 310.443 576.555L319.205 563.879C333.719 543.087 343.212 524.347 347.683 507.66C351.91 490.55 348.771 472.896 338.265 454.7C330.447 441.159 320.465 431.688 308.319 426.287C295.929 420.463 282.132 418.555 266.929 420.562C252.148 422.325 236.929 427.726 221.272 436.766C204.769 446.294 191.546 457.596 181.604 470.671C172.085 483.502 166.481 497.739 164.793 513.384C163.284 528.36 167.294 544.101 176.822 560.604C182.084 569.719 178.962 581.374 169.847 586.636L126.684 611.556C118.27 616.414 107.512 613.531 102.654 605.118C85.7964 575.919 78.364 546.921 80.3571 518.123C82.529 488.658 92.7107 461.339 110.902 436.166C129.094 410.994 153.424 389.612 183.892 372.021C213.937 354.675 243.772 344.784 273.399 342.349C303.025 339.914 330.017 344.642 354.374 356.534C378.909 367.759 398.507 386.066 413.166 411.456C427.58 436.423 434.775 459.634 434.749 481.09C435.147 502.301 431.083 522.138 422.559 540.6C414.035 559.063 404.233 576.289 393.152 592.278L383.755 605.321C378.093 613.104 375.246 620.389 375.216 627.178C375.185 633.966 377.858 642.015 383.233 651.324C388.9 661.14 385.537 673.692 375.721 679.359L337.636 701.347ZM443.068 838.519C427.411 847.558 411.149 850.176 394.283 846.373C377.596 841.901 364.489 831.414 354.96 814.91C345.432 798.407 342.903 781.811 347.375 765.124C352.269 748.193 362.545 735.207 378.202 726.167C394.283 716.883 410.666 714.477 427.353 718.948C444.464 723.175 457.783 733.541 467.311 750.044C476.84 766.548 479.157 783.265 474.262 800.197C469.547 816.461 459.149 829.235 443.068 838.519Z" fill="#080808" fill-opacity="0.05"/>
</svg>
