<svg width="50" height="50" viewBox="0 0 50 50" fill="none" xmlns="http://www.w3.org/2000/svg">
<g clip-path="url(#clip0_6175_11397)">
<path d="M1.0412 37.5C0.866202 37.5 0.689119 37.4562 0.526619 37.3625C0.026619 37.0771 -0.148381 36.4417 0.137036 35.9417C4.43495 28.4083 6.43704 21.1917 6.43704 13.2292V7.47917C6.43704 3.35417 9.79329 0 13.9162 0H20.3537C22.7245 0 24.912 1.09167 26.3516 2.99583L27.31 4.26667C28.3204 5.62708 29.9329 6.43542 31.6245 6.43542H33.2287C35.5829 6.43542 37.4995 8.35208 37.4995 10.7062V11.9354C37.4995 13.5354 36.5787 15.0292 35.1537 15.7417L26.6954 19.9708C26.0933 20.2729 25.6725 20.8187 25.5433 21.4708C25.4308 22.0354 24.8787 22.4021 24.3183 22.2896C23.7537 22.1771 23.387 21.6292 23.4995 21.0646C23.7579 19.775 24.5829 18.6979 25.762 18.1083L34.2204 13.8792C34.9475 13.5167 35.4162 12.7562 35.4162 11.9375V10.7083C35.4162 9.48125 34.4558 8.52083 33.2287 8.52083H31.6245C29.2787 8.52083 27.0412 7.39792 25.6412 5.51875L24.687 4.25417C23.6475 2.875 22.0662 2.08333 20.3537 2.08333H13.9162C10.9412 2.08333 8.52037 4.50417 8.52037 7.47917V13.2292C8.52037 21.5687 6.43079 29.1146 1.94537 36.9729C1.7537 37.3125 1.40162 37.5 1.0412 37.5Z" fill="black"/>
<path d="M13.9208 20.8333C12.9083 20.8333 11.9687 20.2437 11.5312 19.3292L6.54163 8.97499C6.29372 8.45624 6.51038 7.83332 7.02913 7.58332C7.54788 7.33541 8.16872 7.55207 8.41872 8.07082L13.4083 18.4271C13.5666 18.7583 14.4375 18.7875 14.4854 18.2354L16.1021 1.08749C16.1562 0.514573 16.65 0.0729064 17.2354 0.147906C17.8083 0.202073 18.2291 0.710406 18.175 1.28124L16.5604 18.4271C16.4354 19.7958 15.3021 20.8333 13.9208 20.8333Z" fill="black"/>
<path d="M36.4583 50C36.2395 50 36.0208 49.9312 35.8354 49.7937C35.3083 49.4 22.9166 40.0646 22.9166 32.5625C22.9166 28.3917 26.3083 25 30.4791 25C32.8562 25 35.0479 26.1063 36.4583 27.925C37.8666 26.1063 40.0604 25 42.4375 25C46.6083 25 50 28.3917 50 32.5625C50 40.0646 37.6083 49.4 37.0812 49.7937C36.8958 49.9312 36.677 50 36.4583 50ZM30.4791 27.0833C27.4583 27.0833 25 29.5417 25 32.5625C25 37.625 32.7562 44.7479 36.4583 47.6458C40.1583 44.7458 47.9166 37.6187 47.9166 32.5625C47.9166 29.5417 45.4583 27.0833 42.4375 27.0833C40.252 27.0833 38.2812 28.3729 37.4145 30.3708C37.0854 31.1312 35.8333 31.1312 35.5041 30.3708C34.6354 28.3729 32.6645 27.0833 30.4791 27.0833Z" fill="black"/>
</g>
<defs>
<clipPath id="clip0_6175_11397">
<rect width="50" height="50" fill="white"/>
</clipPath>
</defs>
</svg>
