<svg width="51" height="50" viewBox="0 0 51 50" fill="none" xmlns="http://www.w3.org/2000/svg">
<g clip-path="url(#clip0_6175_11416)">
<path d="M37.1249 50C29.6583 50 23.5833 43.925 23.5833 36.4584C23.5833 28.9917 29.6583 22.9167 37.1249 22.9167C44.5916 22.9167 50.6666 28.9917 50.6666 36.4584C50.6666 43.925 44.5916 50 37.1249 50ZM37.1249 25C30.8062 25 25.6666 30.1396 25.6666 36.4584C25.6666 42.7771 30.8062 47.9167 37.1249 47.9167C43.4437 47.9167 48.5833 42.7771 48.5833 36.4584C48.5833 30.1396 43.4437 25 37.1249 25Z" fill="black"/>
<path d="M35.0416 41.6667C34.7666 41.6667 34.5 41.5562 34.3041 41.3625L30.1375 37.1958C29.7312 36.7896 29.7312 36.1292 30.1375 35.7229C30.5437 35.3167 31.2041 35.3167 31.6104 35.7229L34.9895 39.1021L41.5479 31.6062C41.927 31.1708 42.5854 31.1292 43.0187 31.5083C43.452 31.8875 43.4958 32.5458 43.1166 32.9792L35.825 41.3125C35.6354 41.5292 35.3625 41.6583 35.075 41.6667C35.0645 41.6667 35.052 41.6667 35.0416 41.6667Z" fill="black"/>
<path d="M1.70771 37.5C1.53271 37.5 1.35562 37.4562 1.19312 37.3625C0.693123 37.0771 0.518123 36.4417 0.80354 35.9417C5.10146 28.4083 7.10354 21.1917 7.10354 13.2292V7.47917C7.10354 3.35417 10.4598 0 14.5827 0H21.0202C23.391 0 25.5785 1.09167 27.0181 2.99583L27.9765 4.26667C28.9869 5.62708 30.5994 6.43542 32.291 6.43542H33.8952C36.2494 6.43542 38.166 8.35208 38.166 10.7062V11.9354C38.166 13.5354 37.2452 15.0292 35.8202 15.7417L27.3619 19.9708C26.591 20.3563 26.1223 21.1542 26.166 22.0062C26.1952 22.5792 25.7535 23.0708 25.1785 23.1C24.6327 23.1167 24.114 22.6875 24.0848 22.1125C23.9994 20.4333 24.9181 18.8625 26.4285 18.1083L34.8869 13.8792C35.614 13.5167 36.0827 12.7562 36.0827 11.9375V10.7083C36.0827 9.48125 35.1223 8.52083 33.8952 8.52083H32.291C29.9452 8.52083 27.7077 7.39792 26.3077 5.51875L25.3535 4.25417C24.314 2.875 22.7327 2.08333 21.0202 2.08333H14.5827C11.6077 2.08333 9.18687 4.50417 9.18687 7.47917V13.2292C9.18687 21.5687 7.09729 29.1146 2.61187 36.9729C2.42021 37.3125 2.06812 37.5 1.70771 37.5Z" fill="black"/>
<path d="M14.5874 20.8333C13.5749 20.8333 12.6353 20.2437 12.1978 19.3292L7.20826 8.97499C6.96034 8.45624 7.17701 7.83332 7.69576 7.58332C8.21451 7.33541 8.83534 7.55207 9.08534 8.07082L14.0749 18.4271C14.2353 18.7583 15.102 18.7875 15.152 18.2354L16.7687 1.08749C16.8228 0.514573 17.3208 0.0729064 17.902 0.147906C18.4749 0.202073 18.8958 0.710406 18.8416 1.28124L17.227 18.4271C17.102 19.7958 15.9687 20.8333 14.5874 20.8333Z" fill="black"/>
</g>
<defs>
<clipPath id="clip0_6175_11416">
<rect width="50" height="50" fill="white" transform="translate(0.666504)"/>
</clipPath>
</defs>
</svg>
