<svg width="51" height="50" viewBox="0 0 51 50" fill="none" xmlns="http://www.w3.org/2000/svg">
<g clip-path="url(#clip0_6175_11406)">
<path d="M37.8333 50C37.6958 50 37.5583 49.9729 37.4291 49.9167C36.9333 49.7104 25.3333 44.6958 25.3333 34.45V25.7438C25.3333 25.2979 25.6187 24.9 26.0416 24.7563L37.4999 20.8875C37.7166 20.8146 37.9499 20.8146 38.1666 20.8875L49.6249 24.7563C50.0478 24.8979 50.3333 25.2958 50.3333 25.7438V34.45C50.3333 44.6958 38.7333 49.7104 38.2374 49.9188C38.1083 49.9729 37.9708 50 37.8333 50ZM27.4166 26.4917V34.45C27.4166 42.3354 35.8645 46.8625 37.8333 47.8125C39.7999 46.8604 48.2499 42.3167 48.2499 34.45V26.4917L37.8333 22.975L27.4166 26.4917Z" fill="black"/>
<path d="M36.7915 39.5833C36.7728 39.5833 36.7519 39.5833 36.7332 39.5813C36.4374 39.5646 36.1624 39.4229 35.9769 39.1917L31.8103 33.9833C31.4519 33.5333 31.5249 32.8792 31.9728 32.5188C32.4228 32.1583 33.0769 32.2354 33.4374 32.6813L36.8769 36.9813L43.3457 30.5125C43.7519 30.1063 44.4124 30.1063 44.8186 30.5125C45.2249 30.9188 45.2249 31.5792 44.8186 31.9854L37.5269 39.2771C37.3332 39.475 37.0665 39.5833 36.7915 39.5833Z" fill="black"/>
<path d="M1.37445 37.5C1.19945 37.5 1.02237 37.4562 0.859871 37.3625C0.359871 37.0771 0.184871 36.4417 0.470288 35.9417C4.7682 28.4083 6.77029 21.1917 6.77029 13.2292V7.47917C6.77029 3.35417 10.1265 0 14.2495 0H20.687C23.0578 0 25.2453 1.09167 26.6849 2.99583L27.6432 4.26667C28.6536 5.62708 30.2661 6.43542 31.9578 6.43542H33.562C35.9161 6.43542 37.8328 8.35208 37.8328 10.7062V11.9354C37.8328 13.5354 36.912 15.0292 35.487 15.7417L27.0286 19.9708C26.512 20.2271 25.8182 20.0625 25.5599 19.55C25.2995 19.0396 25.4307 18.4562 25.9411 18.1958L34.5536 13.8771C35.2807 13.5167 35.7495 12.7562 35.7495 11.9375V10.7083C35.7495 9.48125 34.789 8.52083 33.562 8.52083H31.9578C29.612 8.52083 27.3745 7.39792 25.9745 5.51875L25.0203 4.25417C23.9807 2.875 22.3995 2.08333 20.687 2.08333H14.2495C11.2745 2.08333 8.85362 4.50417 8.85362 7.47917V13.2292C8.85362 21.5687 6.76404 29.1146 2.27862 36.9729C2.08695 37.3125 1.73487 37.5 1.37445 37.5Z" fill="black"/>
<path d="M14.2541 20.8333C13.2416 20.8333 12.302 20.2437 11.8645 19.3292L6.87489 8.97499C6.62697 8.45624 6.84364 7.83332 7.36239 7.58332C7.88114 7.33541 8.50197 7.55207 8.75197 8.07082L13.7416 18.4271C13.902 18.7583 14.7686 18.7875 14.8186 18.2354L16.4353 1.08749C16.4895 0.514573 16.9999 0.0729064 17.5707 0.147906C18.1436 0.202073 18.5645 0.710406 18.5103 1.28124L16.8936 18.4271C16.7686 19.7958 15.6353 20.8333 14.2541 20.8333Z" fill="black"/>
</g>
<defs>
<clipPath id="clip0_6175_11406">
<rect width="50" height="50" fill="white" transform="translate(0.333252)"/>
</clipPath>
</defs>
</svg>
